<svg xmlns="http://www.w3.org/2000/svg" xmlns:xlink="http://www.w3.org/1999/xlink" width="20" height="19" viewBox="0 0 20 19">
  <defs>
    <clipPath id="clip-path">
      <rect width="20" height="19" fill="none"/>
    </clipPath>
  </defs>
  <g id="Component_12_30" data-name="Component 12 – 30" clip-path="url(#clip-path)">
    <rect id="Rectangle_393" data-name="Rectangle 393" width="19" height="19" transform="translate(0 0)" fill="none"/>
    <path id="Path_2" data-name="Path 2" d="M44.091,17.6A11.12,11.12,0,0,0,55.31,6.381V5.847a8.685,8.685,0,0,0,1.923-2.03,8.87,8.87,0,0,1-2.244.641A4.157,4.157,0,0,0,56.7,2.321a9.8,9.8,0,0,1-2.458.962A3.816,3.816,0,0,0,51.357,2,4.015,4.015,0,0,0,47.4,5.954a2.083,2.083,0,0,0,.107.855,11.047,11.047,0,0,1-8.121-4.167,4.092,4.092,0,0,0-.534,2.03,4.245,4.245,0,0,0,1.71,3.312,3.6,3.6,0,0,1-1.816-.534h0A3.905,3.905,0,0,0,41.954,11.3a3.294,3.294,0,0,1-1.069.107,1.818,1.818,0,0,1-.748-.107,4.048,4.048,0,0,0,3.74,2.778,8.068,8.068,0,0,1-4.915,1.71A2.958,2.958,0,0,1,38,15.677,10.086,10.086,0,0,0,44.091,17.6" transform="translate(-38 0.403)" fill="#fff" fill-rule="evenodd"/>
  </g>
</svg>
