<?xml version="1.0" encoding="utf-8"?>
<!-- Generator: Adobe Illustrator 23.0.6, SVG Export Plug-In . SVG Version: 6.00 Build 0)  -->
<svg version="1.1" id="Layer_1" xmlns="http://www.w3.org/2000/svg" xmlns:xlink="http://www.w3.org/1999/xlink" x="0px" y="0px"
	 viewBox="0 0 199.18 114.4" style="enable-background:new 0 0 199.18 114.4;" xml:space="preserve">
<style type="text/css">
	.st0{fill:#001738;}
	.st1{fill:#0096DA;}
</style>
<g>
	<path class="st0" d="M130.41,114.36c-3.26-9.56-6.53-19.11-9.79-28.67c-7,0-14-0.01-21-0.01C89.9,57.12,80.18,28.56,70.46,0
		C60.49,0,50.51,0,40.54,0c13.02,38.13,26.05,76.27,39.07,114.4C96.54,114.38,113.48,114.37,130.41,114.36z"/>
	<path class="st1" d="M40.54,0c-0.53,0-1.07,0-1.6,0C25.96,38.13,12.98,76.26,0,114.38c9.94,0,19.87-0.01,29.81-0.01
		c3.93-11.51,7.86-23.03,11.79-34.54c8.73,0,17.47,0,26.21-0.01C58.72,53.22,49.63,26.61,40.54,0z"/>
	<path class="st1" d="M199.18-0.02C189.19-0.01,179.2,0,169.21,0c-7.99,23.47-15.98,46.94-23.97,70.42
		C137.24,46.95,129.25,23.47,121.26,0c-9.98,0-19.97,0-29.95,0c13.04,38.13,26.08,76.27,39.13,114.4
		c9.89-0.01,19.78-0.01,29.67-0.02C173.13,76.24,186.15,38.11,199.18-0.02z"/>
</g>
</svg>
