<?xml version="1.0" encoding="utf-8"?>
<!-- Generator: Adobe Illustrator 23.0.6, SVG Export Plug-In . SVG Version: 6.00 Build 0)  -->
<svg version="1.1" id="Layer_1" xmlns="http://www.w3.org/2000/svg" xmlns:xlink="http://www.w3.org/1999/xlink" x="0px" y="0px"
	 viewBox="0 0 199.18 114.4" style="enable-background:new 0 0 199.18 114.4;" xml:space="preserve">
<style type="text/css">
	.st0{fill:url(#SVGID_1_);}
	.st1{fill:url(#SVGID_2_);}
	.st2{fill:#FFFFFF;}
</style>
<g>
	<linearGradient id="SVGID_1_" gradientUnits="userSpaceOnUse" x1="43.2388" y1="69.1686" x2="129.6968" y2="44.624">
		<stop  offset="0" style="stop-color:#FFFFFF"/>
		<stop  offset="0.2394" style="stop-color:#FDFDFD;stop-opacity:0.9552"/>
		<stop  offset="0.357" style="stop-color:#F5F5F5;stop-opacity:0.9332"/>
		<stop  offset="0.4481" style="stop-color:#E8E8E8;stop-opacity:0.9161"/>
		<stop  offset="0.5255" style="stop-color:#D5D5D5;stop-opacity:0.9016"/>
		<stop  offset="0.5943" style="stop-color:#BDBDBD;stop-opacity:0.8887"/>
		<stop  offset="0.657" style="stop-color:#9F9F9F;stop-opacity:0.877"/>
		<stop  offset="0.7151" style="stop-color:#7C7C7C;stop-opacity:0.8661"/>
		<stop  offset="0.7695" style="stop-color:#525252;stop-opacity:0.8559"/>
		<stop  offset="0.819" style="stop-color:#252525;stop-opacity:0.8466"/>
		<stop  offset="0.8545" style="stop-color:#000000;stop-opacity:0.84"/>
	</linearGradient>
	<path class="st0" d="M130.41,114.36c-3.26-9.56-6.53-19.11-9.79-28.67c-7,0-14-0.01-21-0.01C89.9,57.12,80.18,28.56,70.46,0
		C60.49,0,50.51,0,40.54,0c13.02,38.13,26.05,76.27,39.07,114.4C96.54,114.38,113.48,114.37,130.41,114.36z"/>
	<linearGradient id="SVGID_2_" gradientUnits="userSpaceOnUse" x1="17.8182" y1="58.8936" x2="85.2712" y2="51.9315">
		<stop  offset="0" style="stop-color:#FFFFFF"/>
		<stop  offset="0.0728" style="stop-color:#F9F9F9;stop-opacity:0.9854"/>
		<stop  offset="0.173" style="stop-color:#E7E7E7;stop-opacity:0.9652"/>
		<stop  offset="0.2892" style="stop-color:#CACACA;stop-opacity:0.9419"/>
		<stop  offset="0.4174" style="stop-color:#A1A1A1;stop-opacity:0.9162"/>
		<stop  offset="0.5554" style="stop-color:#6D6D6D;stop-opacity:0.8884"/>
		<stop  offset="0.6993" style="stop-color:#2F2F2F;stop-opacity:0.8595"/>
		<stop  offset="0.7965" style="stop-color:#000000;stop-opacity:0.84"/>
	</linearGradient>
	<path class="st1" d="M40.54,0c-0.53,0-1.07,0-1.6,0C25.96,38.13,12.98,76.26,0,114.38c9.94,0,19.87-0.01,29.81-0.01
		c3.93-11.51,7.86-23.03,11.79-34.54c8.73,0,17.47,0,26.21-0.01C58.72,53.22,49.63,26.61,40.54,0z"/>
	<path class="st2" d="M199.18-0.02C189.19-0.01,179.2,0,169.21,0c-7.99,23.47-15.98,46.94-23.97,70.42
		C137.24,46.95,129.25,23.47,121.26,0c-9.98,0-19.97,0-29.95,0c13.04,38.13,26.08,76.27,39.13,114.4
		c9.89-0.01,19.78-0.01,29.67-0.02c3.37-9.78,6.75-19.56,10.12-29.34h-0.09C179.81,56.68,189.5,28.33,199.18-0.02z"/>
</g>
</svg>
