<svg width="14" height="17" viewBox="0 0 14 17" fill="none" xmlns="http://www.w3.org/2000/svg">
<g clip-path="url(#clip0_620_24)">
<path d="M10.7626 8.48694H9.72464V8.27546C9.72464 6.27691 9.71247 4.278 9.73242 2.27979C9.73851 1.6546 9.20971 1.08414 8.60111 1.09587C7.25173 1.12182 5.90166 1.10405 4.55194 1.10405H4.29193C4.29193 1.20819 4.29498 1.29455 4.29193 1.38057C4.27165 1.85186 4.28652 2.32849 4.21958 2.79267C4.12322 3.46407 3.63296 3.88525 2.98785 3.90871C2.42626 3.92897 1.86399 3.93217 1.30239 3.94425C1.2297 3.94425 1.157 3.94425 1.06301 3.94425C1.05895 4.01534 1.05253 4.0786 1.05253 4.14045C1.05253 6.94333 1.05253 9.74621 1.05253 12.5491C1.05253 13.1146 1.53974 13.6292 2.07936 13.6303C3.30534 13.6336 4.53132 13.6336 5.75729 13.6303C5.8878 13.6303 5.94055 13.6637 5.96692 13.808C6.02304 14.1126 6.10486 14.4122 6.18128 14.7357H6.0173C4.75751 14.7357 3.49772 14.7417 2.23793 14.7357C1.05455 14.7293 0.24783 13.9282 0.0564613 12.9059C0.0226809 12.7204 0.00603727 12.5319 0.0067605 12.343C0.00337942 9.65807 0.00676215 6.97354 0 4.28901C0 3.82696 0.107181 3.41147 0.364481 3.04502C1.22598 1.81205 2.30691 0.854893 3.62722 0.203398C3.90973 0.0689988 4.21722 0.00257828 4.52726 0.00898062C5.87698 0.00898062 7.22671 0.00187226 8.57643 0.0121796C9.71078 0.0207098 10.5375 0.817929 10.7241 1.86039C10.7532 2.01699 10.7687 2.17605 10.7704 2.3356C10.7736 4.34019 10.7736 6.34479 10.7704 8.34939C10.7718 8.38849 10.7664 8.43434 10.7626 8.48694Z" fill="white"/>
<path d="M10.2383 17C8.25229 16.9538 6.51272 15.3896 6.49717 13.0481C6.48263 10.9155 8.04537 9.1174 10.2319 9.1007C12.3086 9.0847 13.9748 10.7662 13.9994 13.0139C14.0221 15.1657 12.433 16.9474 10.2383 17ZM10.8047 11.7173V11.4515C10.8047 11.3569 10.8047 11.2624 10.8047 11.1671C10.8047 10.9589 10.737 10.8341 10.5396 10.7939C10.3588 10.7577 10.1736 10.7535 9.99151 10.7815C9.77918 10.8142 9.69432 10.9532 9.6933 11.1828C9.6933 11.5432 9.68553 11.9039 9.69567 12.264C9.70007 12.4246 9.64563 12.473 9.50058 12.4616C9.36056 12.4493 9.21975 12.4508 9.07997 12.4659C9.01709 12.4733 8.9285 12.5213 8.90822 12.5746C8.89675 12.612 8.8934 12.6517 8.89843 12.6906C8.90347 12.7295 8.91675 12.7668 8.93729 12.7996C9.27856 13.2311 9.62602 13.6576 9.97968 14.0791C10.0124 14.1207 10.0534 14.1541 10.0998 14.177C10.1462 14.1999 10.1969 14.2118 10.2481 14.2118C10.2994 14.2118 10.3501 14.1999 10.3965 14.177C10.4429 14.1541 10.4839 14.1207 10.5166 14.0791C10.8714 13.6602 11.2187 13.2343 11.5586 12.8014C11.5799 12.7691 11.5938 12.7321 11.5992 12.6933C11.6046 12.6544 11.6014 12.6148 11.5897 12.5775C11.5637 12.5203 11.4714 12.473 11.4035 12.4652C11.258 12.4512 11.1116 12.45 10.9659 12.4616C10.8371 12.4691 10.7986 12.4118 10.8033 12.2839C10.8101 12.0955 10.805 11.9064 10.8047 11.7173ZM10.2316 14.7321C9.79203 14.7321 9.35452 14.7321 8.91633 14.7321C8.71854 14.7321 8.6144 14.8387 8.61203 15.0267C8.61203 15.2243 8.71719 15.332 8.92242 15.332C9.79924 15.332 10.6761 15.332 11.5529 15.332C11.773 15.332 11.8836 15.2254 11.8832 15.0264C11.8829 14.8273 11.773 14.7317 11.5451 14.7314C11.1083 14.7306 10.6698 14.7317 10.2316 14.7321Z" fill="white"/>
<path d="M5.37984 6.81598H8.21486C8.47318 6.81598 8.6118 6.961 8.61079 7.22934C8.61079 7.4888 8.47149 7.63416 8.22332 7.63416H2.55327C2.42242 7.63416 2.28278 7.63985 2.22598 7.47991C2.15396 7.28407 2.13739 7.07651 2.26993 6.91124C2.322 6.84584 2.45082 6.82309 2.54481 6.82274C3.48982 6.81385 4.43483 6.81634 5.37984 6.81598Z" fill="white"/>
<path d="M5.38037 5.93025H2.54568C2.28771 5.93025 2.16836 5.80266 2.167 5.52613C2.16565 5.24961 2.28331 5.11206 2.53689 5.11206C4.43232 5.11206 6.32774 5.11206 8.22317 5.11206C8.48148 5.11206 8.60185 5.24108 8.60523 5.51618C8.60861 5.79128 8.48317 5.92883 8.21506 5.92883L5.38037 5.93025Z" fill="white"/>
<path d="M5.38224 8.51953C6.32623 8.51953 7.27023 8.51953 8.21422 8.51953C8.29063 8.51953 8.37922 8.52558 8.43974 8.56574C8.50272 8.61242 8.54752 8.68147 8.56585 8.76016C8.57261 8.79144 8.48741 8.85648 8.43467 8.88847C8.2744 8.98621 8.09656 9.05908 7.94948 9.17281C7.78043 9.30183 7.60461 9.34022 7.40006 9.33951C5.78729 9.33382 4.17452 9.33631 2.56175 9.33667C2.42415 9.33667 2.2862 9.33915 2.22162 9.17317C2.14419 8.97448 2.14149 8.77224 2.27403 8.60697C2.32339 8.54477 2.44308 8.52238 2.53301 8.52202C3.48275 8.5174 4.4325 8.51953 5.38224 8.51953Z" fill="white"/>
<path d="M6.80017 10.2231C6.65005 10.4886 6.51683 10.7324 6.37348 10.9695C6.35602 10.9906 6.33452 11.0075 6.3104 11.0192C6.28627 11.0309 6.26007 11.0371 6.2335 11.0374C4.98047 11.0409 3.72745 11.042 2.47442 11.0406C2.30537 11.0406 2.22389 10.9428 2.19278 10.7747C2.13158 10.4445 2.22862 10.2082 2.59851 10.2142C3.93538 10.2366 5.27294 10.2231 6.61049 10.2231H6.80017Z" fill="white"/>
</g>
<defs>
<clipPath id="clip0_620_24">
<rect width="14" height="17" fill="white"/>
</clipPath>
</defs>
</svg>
