<svg id="Group_3895" data-name="Group 3895" xmlns="http://www.w3.org/2000/svg" xmlns:xlink="http://www.w3.org/1999/xlink" width="86.216" height="76.644" viewBox="0 0 86.216 76.644">
  <defs>
    <clipPath id="clip-path">
      <rect id="Rectangle_1496" data-name="Rectangle 1496" width="86.216" height="76.644" fill="none"/>
    </clipPath>
  </defs>
  <g id="Group_3894" data-name="Group 3894" transform="translate(0 0)" clip-path="url(#clip-path)">
    <path id="Path_395" data-name="Path 395" d="M40.515,12.636H16.527A1.431,1.431,0,0,1,15.1,11.206v-4.2a4.3,4.3,0,0,1,4.3-4.3H37.647a4.3,4.3,0,0,1,4.3,4.3v4.2a1.429,1.429,0,0,1-1.429,1.429M17.957,9.777H39.086V7.008a1.443,1.443,0,0,0-1.439-1.439H19.394a1.441,1.441,0,0,0-1.437,1.439Z" transform="translate(14.586 2.618)"/>
    <path id="Path_396" data-name="Path 396" d="M49.278,15.254H13.537a1.429,1.429,0,0,1-1.429-1.429V8.7A8.708,8.708,0,0,1,20.8,0H42.011a8.708,8.708,0,0,1,8.7,8.7v5.126a1.429,1.429,0,0,1-1.429,1.429M14.967,12.4H47.848V8.7a5.846,5.846,0,0,0-5.838-5.84H20.8A5.846,5.846,0,0,0,14.967,8.7Z" transform="translate(11.699 -0.001)"/>
    <path id="Path_397" data-name="Path 397" d="M13.824,20.925a2,2,0,0,0-.494.315,1.723,1.723,0,0,0-.356.429,1.405,1.405,0,0,0-.181.482.9.9,0,0,0,.128.669,1.331,1.331,0,0,0,.621.5c-.012-.014,2.572,1,2.572,1a3.857,3.857,0,0,1,.836.554,2.378,2.378,0,0,1,.822,1.813,2.409,2.409,0,0,1-.014.25c-.008.092-.022.189-.039.287a3.338,3.338,0,0,1-.376.977,3.561,3.561,0,0,1-.669.842,3.19,3.19,0,0,1-1.022.623,3.33,3.33,0,0,1-1.186.22,3.667,3.667,0,0,1-1.017-.14,3.621,3.621,0,0,1-.926-.409,4.156,4.156,0,0,1-.708-.621,3.524,3.524,0,0,1-.535-.785.83.83,0,0,1-.033-.574.683.683,0,0,1,.315-.415.947.947,0,0,1,.663-.053.724.724,0,0,1,.474.387,1.705,1.705,0,0,0,.69.771,2.089,2.089,0,0,0,1.077.273,1.715,1.715,0,0,0,.568-.1,1.769,1.769,0,0,0,.523-.289,1.856,1.856,0,0,0,.4-.44,1.606,1.606,0,0,0,.236-.562.912.912,0,0,0-.114-.7,1.353,1.353,0,0,0-.621-.5c.026.014-2.531-.977-2.531-.977a2.824,2.824,0,0,1-1.433-1.245,2.393,2.393,0,0,1-.279-1.15,2.5,2.5,0,0,1,.053-.509,3.43,3.43,0,0,1,.368-.989,3.02,3.02,0,0,1,.69-.832,3.392,3.392,0,0,1,.969-.588,3.227,3.227,0,0,1,1.119-.228h.12a3.909,3.909,0,0,1,1.017.134,3.493,3.493,0,0,1,.924.4A3.442,3.442,0,0,1,17.7,21.159a.862.862,0,0,1,.041.576.673.673,0,0,1-.309.415.985.985,0,0,1-.674.053.745.745,0,0,1-.478-.362,1.681,1.681,0,0,0-.688-.783,2.04,2.04,0,0,0-1.064-.273,1.735,1.735,0,0,0-.71.14" transform="translate(10.833 18.568)"/>
    <path id="Path_398" data-name="Path 398" d="M23.627,19.432a.758.758,0,0,1,.234.554.735.735,0,0,1-.234.556.785.785,0,0,1-.556.22H20.219v8.353a.8.8,0,0,1-.788.788.728.728,0,0,1-.556-.234.777.777,0,0,1-.22-.554V20.763H15.791a.778.778,0,0,1-.556-.22A.735.735,0,0,1,15,19.986a.8.8,0,0,1,.79-.788H23.07a.758.758,0,0,1,.556.234" transform="translate(14.495 18.549)"/>
    <path id="Path_399" data-name="Path 399" d="M27.271,28.825a.806.806,0,0,1-.468.989,1.316,1.316,0,0,1-.153.035c-.041,0-.083.006-.128.006a.766.766,0,0,1-.429-.134.874.874,0,0,1-.307-.362l-.551-1.5H21.207c-.088.234-.181.482-.279.743s-.189.511-.267.743a.83.83,0,0,1-.281.362.757.757,0,0,1-.456.147,1.088,1.088,0,0,1-.12-.006,1.267,1.267,0,0,1-.147-.035.861.861,0,0,1-.448-.421.738.738,0,0,1-.02-.61c0,.014,3.291-9.021,3.291-9.021a.817.817,0,0,1,.281-.36.764.764,0,0,1,.415-.147.747.747,0,0,1,.482.12.7.7,0,0,1,.32.415c-.012-.028,3.293,9.007,3.293,9.007Zm-2.584-2.531-1.459-3.988q-.186.507-.362.977c-.114.311-.23.629-.348.95s-.236.649-.36.983-.256.694-.387,1.078Z" transform="translate(18.485 18.6)"/>
    <path id="Path_400" data-name="Path 400" d="M31.438,28.595a.743.743,0,0,1,.155.582.787.787,0,0,1-.3.515.739.739,0,0,1-.468.161.811.811,0,0,1-.631-.295l-2.8-3.669H25.51v3.227a.777.777,0,0,1-.22.554.728.728,0,0,1-.556.234.8.8,0,0,1-.788-.788V19.986a.789.789,0,0,1,.8-.788H28.08a2.38,2.38,0,0,1,1.292.356,2.934,2.934,0,0,1,.958,1,3.859,3.859,0,0,1,.374.944,4.177,4.177,0,0,1,.134,1.05,4.314,4.314,0,0,1-.134,1.077,3.859,3.859,0,0,1-.374.944,2.937,2.937,0,0,1-.509.635,2.772,2.772,0,0,1-.641.448ZM28.08,24.324a.847.847,0,0,0,.562-.181,1.39,1.39,0,0,0,.32-.368,2.122,2.122,0,0,0,.228-.568,2.643,2.643,0,0,0,.081-.649,2.438,2.438,0,0,0-.309-1.219,1.6,1.6,0,0,0-.32-.381.814.814,0,0,0-.562-.195H25.51v3.561Z" transform="translate(23.137 18.549)"/>
    <path id="Path_401" data-name="Path 401" d="M36.757,19.432a.758.758,0,0,1,.234.554.735.735,0,0,1-.234.556.787.787,0,0,1-.554.22H33.349v8.353a.8.8,0,0,1-.788.788A.728.728,0,0,1,32,29.67a.777.777,0,0,1-.22-.554V20.763H28.919a.777.777,0,0,1-.554-.22.735.735,0,0,1-.234-.556.8.8,0,0,1,.788-.788H36.2a.76.76,0,0,1,.554.234" transform="translate(27.181 18.549)"/>
    <path id="Path_402" data-name="Path 402" d="M42.864,34.251a1.431,1.431,0,0,1-1.429-1.429V30.532a1.429,1.429,0,1,1,2.859,0v2.289a1.431,1.431,0,0,1-1.429,1.429" transform="translate(40.036 28.119)"/>
    <path id="Path_403" data-name="Path 403" d="M42.864,29.705a1.431,1.431,0,0,1-1.429-1.431V23.979a1.429,1.429,0,1,1,2.859,0v4.294a1.431,1.431,0,0,1-1.429,1.431" transform="translate(40.036 21.788)" fill="#eabb26"/>
    <path id="Path_404" data-name="Path 404" d="M42.864,22.164a1.429,1.429,0,0,1-1.429-1.429V18.447a1.429,1.429,0,1,1,2.859,0v2.287a1.429,1.429,0,0,1-1.429,1.429" transform="translate(40.036 16.442)"/>
    <path id="Path_405" data-name="Path 405" d="M77.623,58.368H6.742A5.894,5.894,0,0,1,.959,52.38V15.01a1.429,1.429,0,0,1,2.076-1.274l14.629,7.411a1.429,1.429,0,0,1,.588,2,1.923,1.923,0,0,0-.277.979V35.833a1.96,1.96,0,0,0,1.958,1.958h44.5a1.961,1.961,0,0,0,1.958-1.958V24.124a1.933,1.933,0,0,0-.279-.981,1.428,1.428,0,0,1,.588-2l14.631-7.411A1.428,1.428,0,0,1,83.4,15.01v6.758a1.429,1.429,0,0,1-2.859,0v-4.43L69.136,23.117a4.579,4.579,0,0,1,.112,1.007V35.833a4.823,4.823,0,0,1-4.817,4.817h-44.5a4.824,4.824,0,0,1-4.819-4.817V24.124a4.688,4.688,0,0,1,.112-1.007L3.818,17.338V52.38a3.035,3.035,0,0,0,2.924,3.128H77.623a3.035,3.035,0,0,0,2.922-3.128V47.819a1.429,1.429,0,0,1,2.859,0V52.38a5.892,5.892,0,0,1-5.781,5.987" transform="translate(0.927 13.122)"/>
    <path id="Path_406" data-name="Path 406" d="M17.944,30.884a1.443,1.443,0,0,1-.647-.155L.783,22.364A1.432,1.432,0,0,1,0,21.088v-8.8A5.994,5.994,0,0,1,5.987,6.3H80.226a5.994,5.994,0,0,1,5.987,5.987v8.8a1.432,1.432,0,0,1-.783,1.276L68.917,30.729a1.43,1.43,0,0,1-1.88-.553,1.938,1.938,0,0,0-1.681-.979h-44.5a1.932,1.932,0,0,0-1.679.979,1.432,1.432,0,0,1-1.235.708m2.914-4.546h44.5a4.819,4.819,0,0,1,3.3,1.319l14.7-7.448V12.291a3.133,3.133,0,0,0-3.128-3.128H5.987a3.133,3.133,0,0,0-3.128,3.128v7.918l14.705,7.448a4.807,4.807,0,0,1,3.293-1.319" transform="translate(0 6.09)"/>
    <path id="Path_407" data-name="Path 407" d="M18.275,42.919H10.9A3.653,3.653,0,0,1,7.256,39.27V36.334A1.431,1.431,0,0,1,8.685,34.9H20.493a1.429,1.429,0,0,1,1.429,1.429V39.27a3.653,3.653,0,0,1-3.647,3.649m-8.16-5.155V39.27a.79.79,0,0,0,.788.788h7.371a.79.79,0,0,0,.788-.788V37.764Z" transform="translate(7.011 33.726)"/>
    <path id="Path_408" data-name="Path 408" d="M40.152,42.919H32.78a3.653,3.653,0,0,1-3.647-3.649V36.334A1.431,1.431,0,0,1,30.562,34.9H42.37A1.429,1.429,0,0,1,43.8,36.334V39.27a3.653,3.653,0,0,1-3.647,3.649m-8.16-5.155V39.27a.79.79,0,0,0,.788.788h7.371a.79.79,0,0,0,.788-.788V37.764Z" transform="translate(28.149 33.726)"/>
    <path id="Path_409" data-name="Path 409" d="M84.784,40.385H1.427a1.429,1.429,0,0,1,0-2.859H84.784a1.429,1.429,0,1,1,0,2.859" transform="translate(0 36.258)"/>
  </g>
</svg>
