<svg id="Group_3905" data-name="Group 3905" xmlns="http://www.w3.org/2000/svg" xmlns:xlink="http://www.w3.org/1999/xlink" width="91.973" height="80.704" viewBox="0 0 91.973 80.704">
  <defs>
    <clipPath id="clip-path">
      <rect id="Rectangle_1498" data-name="Rectangle 1498" width="91.973" height="80.704" fill="none"/>
    </clipPath>
  </defs>
  <g id="Group_3904" data-name="Group 3904" transform="translate(0 0)" clip-path="url(#clip-path)">
    <path id="Path_429" data-name="Path 429" d="M34.677,60.558H8a1.465,1.465,0,0,1-1.465-1.465V21.321A1.463,1.463,0,0,1,8,19.856H34.677a1.465,1.465,0,0,1,1.465,1.465V59.094a1.466,1.466,0,0,1-1.465,1.465M9.46,57.629H33.21V22.785H9.46Z" transform="translate(6.626 20.145)"/>
    <path id="Path_430" data-name="Path 430" d="M19.37,60.558H13.049a1.465,1.465,0,0,1-1.465-1.465V21.321a1.463,1.463,0,0,1,1.465-1.465H19.37a1.465,1.465,0,0,1,1.467,1.465V59.094a1.466,1.466,0,0,1-1.467,1.465m-4.857-2.929h3.395V22.785H14.513Z" transform="translate(11.753 20.145)"/>
    <path id="Path_431" data-name="Path 431" d="M26.864,28.846H19.37a1.473,1.473,0,0,1-1-.393L5.477,16.416a1.465,1.465,0,0,1,1-2.534h7.494a1.465,1.465,0,0,1,1,.395L27.863,26.31a1.465,1.465,0,0,1-1,2.536m-6.918-2.929h3.2l-9.753-9.106h-3.2Z" transform="translate(5.087 14.084)"/>
    <path id="Path_432" data-name="Path 432" d="M41.3,28.846H14.621a1.46,1.46,0,0,1-.987-.383L.475,16.428a1.466,1.466,0,0,1,.991-2.546H28.147a1.468,1.468,0,0,1,.987.383L42.292,26.3a1.465,1.465,0,0,1-.989,2.546M15.192,25.917h22.34l-9.954-9.106H5.238Z" transform="translate(0 14.084)"/>
    <path id="Path_433" data-name="Path 433" d="M57.289,60.558H21.241a1.468,1.468,0,0,1-1.467-1.465V21.321a1.466,1.466,0,0,1,1.467-1.465H57.289a1.463,1.463,0,0,1,1.465,1.465V59.094a1.465,1.465,0,0,1-1.465,1.465M22.705,57.629h33.12V22.785H22.705Z" transform="translate(20.062 20.145)"/>
    <path id="Path_434" data-name="Path 434" d="M57.286,28.846H21.24A1.465,1.465,0,0,1,20.25,26.3L33.408,14.265a1.468,1.468,0,0,1,.987-.383H70.446a1.466,1.466,0,0,1,.989,2.546L58.278,28.463a1.471,1.471,0,0,1-.991.383M25.011,25.917H56.718l9.956-9.106H34.963Z" transform="translate(20.063 14.084)"/>
    <path id="Path_435" data-name="Path 435" d="M90.509,41.535H1.467a1.465,1.465,0,1,1,0-2.929H90.509a1.465,1.465,0,1,1,0,2.929" transform="translate(0 39.168)"/>
    <path id="Path_436" data-name="Path 436" d="M46.793,23.679H29.687a1.466,1.466,0,0,1-1.32-.826,10.861,10.861,0,0,1-1.1-4.768,10.971,10.971,0,0,1,21.943,0,10.871,10.871,0,0,1-1.1,4.766,1.463,1.463,0,0,1-1.318.828M30.659,20.75H45.82a7.909,7.909,0,0,0,.461-2.665,8.042,8.042,0,0,0-16.084,0,7.941,7.941,0,0,0,.461,2.665" transform="translate(27.665 7.216)" fill="#eabb26"/>
    <path id="Path_437" data-name="Path 437" d="M26.946,30.265a1.536,1.536,0,0,1-.272-.026,1.466,1.466,0,0,1-1.046-.8A17.777,17.777,0,0,1,23.807,21.6a17.945,17.945,0,1,1,35.3,4.5,1.465,1.465,0,0,1-1.418,1.1H30.874l-2.939,2.689a1.463,1.463,0,0,1-.989.385M41.753,6.58A15.034,15.034,0,0,0,26.736,21.6a14.716,14.716,0,0,0,.768,4.71l1.813-1.662a1.468,1.468,0,0,1,.987-.383H56.516a14.612,14.612,0,0,0,.252-2.665A15.034,15.034,0,0,0,41.753,6.58" transform="translate(24.154 3.704)"/>
    <path id="Path_438" data-name="Path 438" d="M28.969,32.283a1.6,1.6,0,0,1-.274-.026,1.47,1.47,0,0,1-1.044-.8c-.282-.58-.522-1.138-.725-1.684H25.471a3.66,3.66,0,0,1-3.656-3.656v-5a3.66,3.66,0,0,1,3.656-3.656H26.92c.175-.483.367-.955.578-1.412l-1.019-1.021a3.66,3.66,0,0,1,0-5.171l3.536-3.534a3.743,3.743,0,0,1,5.169,0l1.021,1.019c.457-.212.929-.4,1.41-.578V5.316A3.662,3.662,0,0,1,41.274,1.66h5a3.66,3.66,0,0,1,3.656,3.656V6.765c.483.175.955.367,1.412.578l1.021-1.019a3.657,3.657,0,0,1,5.169,0l3.536,3.536a3.653,3.653,0,0,1,0,5.169L60.048,16.05c.212.457.4.929.578,1.412h1.448a3.66,3.66,0,0,1,3.656,3.656v5A3.651,3.651,0,0,1,64.5,28.841a1.458,1.458,0,0,1-.973.371H32.9L29.96,31.9a1.478,1.478,0,0,1-.991.385m-3.5-11.892a.728.728,0,0,0-.727.727v5a.727.727,0,0,0,.727.727H27.98a1.461,1.461,0,0,1,1.4,1.05c.044.143.091.288.141.435l1.815-1.662a1.46,1.46,0,0,1,.987-.385H62.783a.83.83,0,0,0,.018-.165v-5a.728.728,0,0,0-.727-.727H59.568a1.462,1.462,0,0,1-1.4-1.048,15.08,15.08,0,0,0-1.187-2.885,1.463,1.463,0,0,1,.252-1.735L59,12.958a.73.73,0,0,0,0-1.027L55.46,8.395a.73.73,0,0,0-1.027,0l-1.767,1.767a1.464,1.464,0,0,1-1.735.252,15.179,15.179,0,0,0-2.885-1.187A1.46,1.46,0,0,1,47,7.825V5.316a.728.728,0,0,0-.727-.727h-5a.73.73,0,0,0-.729.727V7.825a1.462,1.462,0,0,1-1.046,1.4,15.026,15.026,0,0,0-2.885,1.187,1.46,1.46,0,0,1-1.733-.252L33.113,8.395a.725.725,0,0,0-1.027,0L28.55,11.93a.73.73,0,0,0,0,1.027l1.767,1.767a1.463,1.463,0,0,1,.252,1.735,15.179,15.179,0,0,0-1.187,2.885,1.46,1.46,0,0,1-1.4,1.048Z" transform="translate(22.133 1.684)"/>
    <path id="Path_439" data-name="Path 439" d="M35.477,42.748a1.46,1.46,0,0,1-.991-.385L21.951,30.9H18.271a1.467,1.467,0,0,1-1.4-1.021l-.608-1.926A14.493,14.493,0,0,1,8.52,5.152,2.454,2.454,0,0,1,10.9,4.225a2.5,2.5,0,0,1,1.966,1.71L15.4,13.891,23.851,11.2,21.323,3.254A2.485,2.485,0,0,1,21.937.736,2.51,2.51,0,0,1,24.49.121a14.5,14.5,0,0,1,6.769,23.063L36.869,40.84a1.459,1.459,0,0,1-.608,1.676,1.439,1.439,0,0,1-.784.232M19.342,27.967h3.177a1.461,1.461,0,0,1,.987.383l8.91,8.151-4.2-13.216a1.469,1.469,0,0,1,.324-1.44A11.575,11.575,0,0,0,24.379,3.194l2.708,8.518a1.463,1.463,0,0,1-.953,1.839L14.886,17.126a1.464,1.464,0,0,1-1.839-.953l-2.708-8.52a11.569,11.569,0,0,0,7.371,17.634,1.465,1.465,0,0,1,1.094.991Z" transform="translate(5.626 -0.001)"/>
    <path id="Path_440" data-name="Path 440" d="M39,46.369a2.977,2.977,0,0,1-1.912-.715L34.81,43.732l-2.329,1.922a2.9,2.9,0,0,1-3.5.242,3.469,3.469,0,0,1-1.4-3.9l.87-3.108a.661.661,0,0,0-.131-.627L26.05,36.34a3.543,3.543,0,0,1-.979-3.924,3.1,3.1,0,0,1,2.891-2.121h2.816a.422.422,0,0,0,.159-.252l.868-3.111a3.05,3.05,0,0,1,5.957,0l.872,3.111a.39.39,0,0,0,.165.254l2.806,0A3.105,3.105,0,0,1,44.5,32.416a3.542,3.542,0,0,1-.977,3.924l-2.278,1.922a.651.651,0,0,0-.133.627L41.981,42a3.471,3.471,0,0,1-1.394,3.9A2.94,2.94,0,0,1,39,46.369M27.962,33.224a.5.5,0,0,0-.181.365.6.6,0,0,0,.157.514l2.278,1.922a3.571,3.571,0,0,1,1.064,3.654l-.868,3.108a.541.541,0,0,0,.181.657l2.281-1.952a2.922,2.922,0,0,1,3.826,0l2.278,1.922c.079,0,.292-.226.181-.627l-.87-3.108a3.572,3.572,0,0,1,1.066-3.654L41.633,34.1a.591.591,0,0,0,.155-.514.537.537,0,0,0-.169-.365H38.792a3.138,3.138,0,0,1-2.98-2.391l-.87-3.108c-.1-.359-.216-.359-.312,0l-.872,3.108a3.138,3.138,0,0,1-2.98,2.391Z" transform="translate(25.208 24.896)"/>
  </g>
</svg>
