<svg id="Group_3903" data-name="Group 3903" xmlns="http://www.w3.org/2000/svg" xmlns:xlink="http://www.w3.org/1999/xlink" width="85.628" height="84.724" viewBox="0 0 85.628 84.724">
  <defs>
    <clipPath id="clip-path">
      <rect id="Rectangle_1497" data-name="Rectangle 1497" width="85.628" height="84.724" fill="none"/>
    </clipPath>
  </defs>
  <g id="Group_3902" data-name="Group 3902" transform="translate(0 0)" clip-path="url(#clip-path)">
    <path id="Path_410" data-name="Path 410" d="M78.45,62.488H7.175A7.184,7.184,0,0,1,0,55.311V12.29A7.184,7.184,0,0,1,7.175,5.114H24.655a1.448,1.448,0,1,1,0,2.9H7.175A4.284,4.284,0,0,0,2.9,12.29V55.311a4.284,4.284,0,0,0,4.279,4.281H78.45a4.283,4.283,0,0,0,4.279-4.281V12.29A4.283,4.283,0,0,0,78.45,8.009H60.973a1.448,1.448,0,1,1,0-2.9H78.45a7.185,7.185,0,0,1,7.176,7.176V55.311a7.185,7.185,0,0,1-7.176,7.176" transform="translate(0.001 5.069)"/>
    <path id="Path_411" data-name="Path 411" d="M84.179,31.275H1.447a1.448,1.448,0,0,1,0-2.9H84.179a1.448,1.448,0,0,1,0,2.9" transform="translate(0.001 28.131)"/>
    <path id="Path_412" data-name="Path 412" d="M29.534,43.6H19.769a1.446,1.446,0,0,1-1.446-1.448V33.921a1.447,1.447,0,0,1,1.446-1.448h9.765a1.447,1.447,0,0,1,1.446,1.448v8.232A1.446,1.446,0,0,1,29.534,43.6m-8.315-2.9h6.866V35.368H21.218Z" transform="translate(18.163 32.188)"/>
    <path id="Path_413" data-name="Path 413" d="M35.977,48.437H17.61a1.449,1.449,0,0,1-1.448-1.448V38.055a1.448,1.448,0,0,1,1.448-1.448H35.977a1.448,1.448,0,0,1,1.448,1.448v8.935a1.449,1.449,0,0,1-1.448,1.448m-16.918-2.9H34.531V39.5H19.059Z" transform="translate(16.021 36.286)"/>
    <path id="Path_414" data-name="Path 414" d="M55.306,43.989H11.129a1.448,1.448,0,1,1,0-2.9H55.306a1.448,1.448,0,1,1,0,2.9" transform="translate(9.596 40.734)"/>
    <path id="Path_415" data-name="Path 415" d="M26.549,45.3a1.458,1.458,0,0,1-.444-.07L17.664,42.5a1.445,1.445,0,0,1-1-1.266c-2-25.8,8.278-40.086,8.72-40.681a1.5,1.5,0,0,1,2.33,0c.44.6,10.721,14.877,8.716,40.681a1.45,1.45,0,0,1-1,1.266L27,45.233a1.49,1.49,0,0,1-.446.07m-7.063-5.255,7.063,2.286,7.065-2.286c1.249-18.943-4.51-31.39-7.065-35.894C24,8.658,18.236,21.105,19.486,40.048" transform="translate(16.265 0)"/>
    <path id="Path_416" data-name="Path 416" d="M29.169,29.642H20.831a2.865,2.865,0,0,1-2.861-2.865V21.838a1.447,1.447,0,0,1,1.892-1.378L25,22.123l5.137-1.663a1.448,1.448,0,0,1,1.894,1.378v4.938a2.867,2.867,0,0,1-2.863,2.865m-8.3-5.814v2.949l8.3-.03-.02-2.923-3.7,1.2a1.446,1.446,0,0,1-.89,0Z" transform="translate(17.813 20.211)"/>
    <path id="Path_417" data-name="Path 417" d="M36.328,35.774a1.451,1.451,0,0,1-1.26-.735,16.3,16.3,0,0,0-8.558-7.35,1.448,1.448,0,0,1,.822-2.776A18.471,18.471,0,0,1,34.775,29.8a21.1,21.1,0,0,0-9.319-15.524,1.448,1.448,0,0,1,1.585-2.423C39.2,19.814,37.831,33.887,37.77,34.482a1.45,1.45,0,0,1-1.442,1.292" transform="translate(24.582 11.513)"/>
    <path id="Path_418" data-name="Path 418" d="M13.168,35.775a1.431,1.431,0,0,1-.293-.03,1.449,1.449,0,0,1-1.149-1.262c-.062-.6-1.428-14.668,10.727-22.631a1.448,1.448,0,1,1,1.587,2.423,21.224,21.224,0,0,0-9.285,15.486,18.441,18.441,0,0,1,7.409-4.847,1.447,1.447,0,0,1,.828,2.774,16.5,16.5,0,0,0-8.566,7.352,1.443,1.443,0,0,1-1.258.735" transform="translate(11.549 11.513)"/>
    <path id="Path_419" data-name="Path 419" d="M22.223,33.932a1.449,1.449,0,0,1-1.45-1.448V27.148a1.449,1.449,0,0,1,2.9,0v5.337a1.448,1.448,0,0,1-1.448,1.448" transform="translate(20.591 25.475)"/>
    <path id="Path_420" data-name="Path 420" d="M22.223,25.735a1.449,1.449,0,0,1-1.45-1.448V11.257a1.449,1.449,0,0,1,2.9,0V24.287a1.448,1.448,0,0,1-1.448,1.448" transform="translate(20.591 9.723)" fill="#eabb26"/>
    <path id="Path_421" data-name="Path 421" d="M26.893,34.322a1.448,1.448,0,0,1-1.45-1.448V26.754a1.449,1.449,0,0,1,2.9,0v6.121a1.448,1.448,0,0,1-1.448,1.448" transform="translate(25.22 25.084)"/>
    <path id="Path_422" data-name="Path 422" d="M17.551,34.322A1.448,1.448,0,0,1,16.1,32.875V26.754a1.449,1.449,0,0,1,2.9,0v6.121a1.448,1.448,0,0,1-1.45,1.448" transform="translate(15.962 25.084)"/>
    <path id="Path_423" data-name="Path 423" d="M34.889,23.2a1.448,1.448,0,0,1-1.023-2.471L40.586,14a1.449,1.449,0,0,1,2.049,2.049l-6.72,6.72a1.447,1.447,0,0,1-1.025.424" transform="translate(33.148 13.46)"/>
    <path id="Path_424" data-name="Path 424" d="M34.889,32.163a1.448,1.448,0,0,1-1.023-2.471l8.5-8.5a1.447,1.447,0,0,1,2.047,2.047l-8.5,8.5a1.447,1.447,0,0,1-1.025.424" transform="translate(33.148 20.585)"/>
    <path id="Path_425" data-name="Path 425" d="M31.836,15.67A1.448,1.448,0,0,1,30.812,13.2l3.413-3.413a1.448,1.448,0,0,1,2.049,2.047l-3.413,3.413a1.447,1.447,0,0,1-1.025.424" transform="translate(30.122 9.28)"/>
    <path id="Path_426" data-name="Path 426" d="M12.9,23.2a1.447,1.447,0,0,1-1.025-.424l-6.72-6.72A1.449,1.449,0,1,1,7.2,14l6.72,6.722A1.448,1.448,0,0,1,12.9,23.2" transform="translate(4.689 13.46)"/>
    <path id="Path_427" data-name="Path 427" d="M13.785,32.163a1.447,1.447,0,0,1-1.025-.424l-8.5-8.5a1.447,1.447,0,0,1,2.047-2.047l8.5,8.5a1.448,1.448,0,0,1-1.024,2.471" transform="translate(3.803 20.585)"/>
    <path id="Path_428" data-name="Path 428" d="M14.308,15.67a1.447,1.447,0,0,1-1.025-.424L9.869,11.833a1.448,1.448,0,0,1,2.049-2.047L15.331,13.2a1.448,1.448,0,0,1-1.024,2.471" transform="translate(9.362 9.28)"/>
  </g>
</svg>
