<svg id="Group_3907" data-name="Group 3907" xmlns="http://www.w3.org/2000/svg" xmlns:xlink="http://www.w3.org/1999/xlink" width="74.385" height="85.479" viewBox="0 0 74.385 85.479">
  <defs>
    <clipPath id="clip-path">
      <rect id="Rectangle_1499" data-name="Rectangle 1499" width="74.385" height="85.479" fill="none"/>
    </clipPath>
  </defs>
  <g id="Group_3906" data-name="Group 3906" transform="translate(0 0)" clip-path="url(#clip-path)">
    <path id="Path_441" data-name="Path 441" d="M30.009,44.247a1.393,1.393,0,0,1-.422-.066l-8.252-2.669a1.377,1.377,0,0,1-.947-1.2C18.43,15.092,28.474,1.14,28.9.558a1.377,1.377,0,0,1,2.214,0c.427.582,10.472,14.535,8.515,39.751a1.377,1.377,0,0,1-.949,1.2l-8.25,2.669a1.4,1.4,0,0,1-.423.066M23.063,39.18l6.946,2.246,6.948-2.246C38.2,20.488,32.5,8.305,30.013,3.965c-2.482,4.354-8.184,16.575-6.95,35.216" transform="translate(17.932 0.001)"/>
    <path id="Path_442" data-name="Path 442" d="M32.654,29.98H24.5a2.762,2.762,0,0,1-2.76-2.76v-4.83a1.375,1.375,0,0,1,1.8-1.306l5.036,1.628,5.038-1.628a1.374,1.374,0,0,1,1.8,1.306v4.83a2.761,2.761,0,0,1-2.758,2.76m-8.162-5.7v2.94l8.162.011.006-2.951L29,25.463a1.379,1.379,0,0,1-.847,0Z" transform="translate(19.364 18.717)"/>
    <path id="Path_443" data-name="Path 443" d="M40.008,35.519a1.374,1.374,0,0,1-1.195-.7,16.156,16.156,0,0,0-8.4-7.207,1.375,1.375,0,0,1,.786-2.635,18.085,18.085,0,0,1,7.345,4.855A20.7,20.7,0,0,0,29.4,14.5a1.375,1.375,0,1,1,1.507-2.3C42.77,19.975,41.437,33.71,41.375,34.292a1.375,1.375,0,0,1-1.367,1.227" transform="translate(25.629 10.67)"/>
    <path id="Path_444" data-name="Path 444" d="M16.678,35.52a1.375,1.375,0,0,1-1.367-1.227c-.062-.582-1.4-14.317,10.468-22.09a1.375,1.375,0,0,1,1.507,2.3,20.83,20.83,0,0,0-9.113,15.3,18.085,18.085,0,0,1,7.311-4.821,1.375,1.375,0,0,1,.786,2.635,16.161,16.161,0,0,0-8.4,7.207,1.374,1.374,0,0,1-1.195.7" transform="translate(13.57 10.669)"/>
    <path id="Path_445" data-name="Path 445" d="M28.578,38.305a1.389,1.389,0,0,1-.535-.11c-6.112-2.583-6.3-9.1-6.3-9.372a1.375,1.375,0,0,1,2.749-.047,8.054,8.054,0,0,0,4.086,6.638,8.064,8.064,0,0,0,4.087-6.643,1.4,1.4,0,0,1,1.4-1.342,1.373,1.373,0,0,1,1.344,1.4c0,.276-.187,6.789-6.3,9.372a1.382,1.382,0,0,1-.535.11" transform="translate(19.364 24.427)" fill="#eabb26"/>
    <path id="Path_446" data-name="Path 446" d="M26.005,32.47A1.374,1.374,0,0,1,24.631,31.1V27.86a1.374,1.374,0,0,1,2.749,0V31.1a1.373,1.373,0,0,1-1.374,1.374" transform="translate(21.936 23.589)" fill="#061838"/>
    <path id="Path_447" data-name="Path 447" d="M26.005,25.61a1.376,1.376,0,0,1-1.374-1.374V11.494a1.374,1.374,0,1,1,2.749,0V24.235a1.374,1.374,0,0,1-1.374,1.374" transform="translate(21.936 9.013)"/>
    <path id="Path_448" data-name="Path 448" d="M56.983,54.284H10.1a1.375,1.375,0,0,1,0-2.751,6.878,6.878,0,1,0,0-13.756,1.374,1.374,0,1,1,0-2.749H56.983a9.628,9.628,0,0,1,0,19.256M16.835,51.533H56.983a6.878,6.878,0,1,0,0-13.756H16.835a9.61,9.61,0,0,1,0,13.756" transform="translate(7.775 31.196)"/>
    <path id="Path_449" data-name="Path 449" d="M17.894,82.074c-.316,0-.635-.015-.955-.045A9.9,9.9,0,0,1,8.252,72.09V13.452a6.886,6.886,0,0,0-6.878-6.88,1.374,1.374,0,0,1,0-2.749h34.4a1.374,1.374,0,1,1,0,2.749H8.1a9.594,9.594,0,0,1,2.9,6.88V72.09a7.126,7.126,0,0,0,6.2,7.2,6.879,6.879,0,1,0,.679-13.724,1.375,1.375,0,0,1,0-2.751H59.421V46.036a1.374,1.374,0,1,1,2.749,0V64.193A1.374,1.374,0,0,1,60.8,65.567H24.61a9.625,9.625,0,0,1-6.715,16.507" transform="translate(0 3.405)"/>
    <path id="Path_450" data-name="Path 450" d="M73.01,46.509H1.374a1.375,1.375,0,0,1,0-2.751H73.01a1.375,1.375,0,0,1,0,2.751" transform="translate(0 38.971)"/>
    <path id="Path_451" data-name="Path 451" d="M24.857,10.884H11.267a1.374,1.374,0,1,1,0-2.747H24.857a1.374,1.374,0,1,1,0,2.747" transform="translate(8.81 7.247)"/>
    <path id="Path_452" data-name="Path 452" d="M18.061,18.758H11.266a1.374,1.374,0,1,1,0-2.749h6.795a1.374,1.374,0,0,1,0,2.749" transform="translate(8.81 14.258)"/>
    <path id="Path_453" data-name="Path 453" d="M16.93,22.695H11.267a1.374,1.374,0,0,1,0-2.749H16.93a1.374,1.374,0,0,1,0,2.749" transform="translate(8.81 17.764)"/>
    <path id="Path_454" data-name="Path 454" d="M16.93,26.632H11.267a1.374,1.374,0,1,1,0-2.749H16.93a1.374,1.374,0,0,1,0,2.749" transform="translate(8.81 21.27)"/>
    <path id="Path_455" data-name="Path 455" d="M28.254,30.567H11.267a1.374,1.374,0,1,1,0-2.749H28.254a1.374,1.374,0,1,1,0,2.749" transform="translate(8.81 24.775)"/>
    <path id="Path_456" data-name="Path 456" d="M28.254,34.5H11.267a1.374,1.374,0,1,1,0-2.749H28.254a1.374,1.374,0,1,1,0,2.749" transform="translate(8.81 28.281)"/>
    <path id="Path_457" data-name="Path 457" d="M21.46,14.823H11.267a1.375,1.375,0,0,1,0-2.751H21.46a1.375,1.375,0,0,1,0,2.751" transform="translate(8.81 10.752)"/>
  </g>
</svg>
