<svg id="Group_3915" data-name="Group 3915" xmlns="http://www.w3.org/2000/svg" xmlns:xlink="http://www.w3.org/1999/xlink" width="80.455" height="78.153" viewBox="0 0 80.455 78.153">
  <defs>
    <clipPath id="clip-path">
      <rect id="Rectangle_1501" data-name="Rectangle 1501" width="80.455" height="78.153" fill="none"/>
    </clipPath>
  </defs>
  <g id="Group_3914" data-name="Group 3914" transform="translate(0 0)" clip-path="url(#clip-path)">
    <path id="Path_473" data-name="Path 473" d="M8.5,55.945A7.688,7.688,0,0,1,3.06,42.817l17.166-17.17a1.409,1.409,0,0,1,1.934,0L31.1,34.59a1.366,1.366,0,0,1,0,1.932L13.935,53.692A7.642,7.642,0,0,1,8.5,55.945m12.7-27.4-16.2,16.2A4.958,4.958,0,0,0,12,51.76l16.2-16.2Z" transform="translate(0.708 22.21)"/>
    <path id="Path_474" data-name="Path 474" d="M18.807,36.462a1.366,1.366,0,0,1-.968-.4l-5.63-5.632a1.366,1.366,0,0,1,0-1.932L16.4,24.3a1.368,1.368,0,0,1,1.934,0l5.632,5.632a1.366,1.366,0,0,1,0,1.932l-4.2,4.2a1.357,1.357,0,0,1-.964.4m-3.7-7,3.7,3.7L21.07,30.9l-3.7-3.7Z" transform="translate(10.382 21.014)"/>
    <path id="Path_475" data-name="Path 475" d="M25.257,38.566a3.834,3.834,0,0,1-2.729-1.129l-8.513-8.516a3.854,3.854,0,0,1,0-5.452l3.864-3.862a1.358,1.358,0,0,1,1.2-.381,1.372,1.372,0,0,1,1,.763A23.969,23.969,0,0,0,31.462,31.373a1.364,1.364,0,0,1,.381,2.2l-3.862,3.864a3.828,3.828,0,0,1-2.725,1.129M18.49,22.858,15.945,25.4a1.125,1.125,0,0,0,0,1.586l8.516,8.516a1.15,1.15,0,0,0,1.586,0l2.544-2.544a26.718,26.718,0,0,1-10.1-10.1" transform="translate(11.329 16.884)"/>
    <path id="Path_476" data-name="Path 476" d="M21.626,42.867H19.44a1.366,1.366,0,1,1,0-2.732h2.185a1.366,1.366,0,1,1,0,2.732" transform="translate(15.889 35.286)"/>
    <path id="Path_477" data-name="Path 477" d="M39.334,42.867h-3.7a1.366,1.366,0,1,1,0-2.732h3.7a1.366,1.366,0,1,1,0,2.732m-11.1,0h-3.7a1.366,1.366,0,0,1,0-2.732h3.7a1.366,1.366,0,1,1,0,2.732" transform="translate(20.373 35.286)"/>
    <path id="Path_478" data-name="Path 478" d="M38.536,42.867H36.35a1.366,1.366,0,1,1,0-2.732h2.185a1.366,1.366,0,1,1,0,2.732" transform="translate(30.756 35.286)"/>
    <path id="Path_479" data-name="Path 479" d="M35.329,42.867H1.366a1.366,1.366,0,0,1,0-2.732H35.329a1.366,1.366,0,0,1,0,2.732" transform="translate(0 35.286)"/>
    <path id="Path_480" data-name="Path 480" d="M35.5,38.766a5.766,5.766,0,0,1-4.521-2.078L22.63,26.612a5.739,5.739,0,1,1,8.842-7.319l3.753,4.533L51.432,2.71a5.738,5.738,0,1,1,9.1,6.989l-3.272,4.262A1.366,1.366,0,1,1,55.1,12.3l3.27-4.262A3.006,3.006,0,1,0,53.6,4.375L36.348,26.848a1.368,1.368,0,0,1-1.056.534,1.337,1.337,0,0,1-1.081-.494l-4.845-5.854a3.006,3.006,0,0,0-4.632,3.834L33.08,34.946a3.006,3.006,0,0,0,4.7-.088l2.244-2.922A1.366,1.366,0,0,1,42.192,33.6l-2.246,2.924A5.715,5.715,0,0,1,35.5,38.766Z" transform="translate(18.737 0.409)"/>
    <path id="Path_481" data-name="Path 481" d="M32.484,20.472a1.366,1.366,0,0,1-1.082-2.2l1.33-1.734A1.366,1.366,0,1,1,34.9,18.2l-1.33,1.734a1.365,1.365,0,0,1-1.084.534" transform="translate(27.359 14.071)"/>
    <path id="Path_482" data-name="Path 482" d="M35.834,16.808a1.366,1.366,0,0,1-1.082-2.2l2.481-3.234A1.366,1.366,0,1,1,39.4,13.041l-2.481,3.234a1.365,1.365,0,0,1-1.084.534" transform="translate(30.304 9.532)" fill="#eabb26"/>
    <path id="Path_483" data-name="Path 483" d="M39.8,10.944a1.351,1.351,0,0,1-.829-.282,1.366,1.366,0,0,1-.254-1.917l1.332-1.733a1.365,1.365,0,1,1,2.165,1.663l-1.33,1.734a1.363,1.363,0,0,1-1.084.534" transform="translate(33.789 5.694)"/>
    <path id="Path_484" data-name="Path 484" d="M38.141,45.275a21.19,21.19,0,1,1,9.5-40.124,1.366,1.366,0,1,1-1.225,2.443,18.482,18.482,0,1,0,9.962,13.763,1.366,1.366,0,1,1,2.7-.4A21.155,21.155,0,0,1,38.141,45.275" transform="translate(14.897 2.541)"/>
    <path id="Path_485" data-name="Path 485" d="M40.7,53.279A26.652,26.652,0,1,1,53.625,3.326,1.367,1.367,0,0,1,52.3,5.717,24.02,24.02,0,0,0,23.776,9.708,23.931,23.931,0,0,0,57.62,43.55a24.055,24.055,0,0,0,5.611-24.907,1.366,1.366,0,0,1,2.576-.911A26.62,26.62,0,0,1,40.7,53.279" transform="translate(12.34 -0.001)"/>
  </g>
</svg>
