<svg xmlns="http://www.w3.org/2000/svg" xmlns:xlink="http://www.w3.org/1999/xlink" width="82.919" height="82.919" viewBox="0 0 82.919 82.919">
  <defs>
    <clipPath id="clip-path">
      <rect id="Rectangle_1500" data-name="Rectangle 1500" width="82.919" height="82.919" fill="none"/>
    </clipPath>
  </defs>
  <g id="Group_3913" data-name="Group 3913" transform="translate(0)">
    <g id="Group_3912" data-name="Group 3912" transform="translate(0 0)" clip-path="url(#clip-path)">
      <path id="Path_458" data-name="Path 458" d="M25.016,26.391H9.733A1.372,1.372,0,0,1,8.447,24.54a27.272,27.272,0,0,1,16.09-16.1,1.375,1.375,0,0,1,1.853,1.288V25.018a1.374,1.374,0,0,1-1.373,1.373M11.8,23.644H23.641V11.8A24.518,24.518,0,0,0,11.8,23.644" transform="translate(7.431 7.43)"/>
      <path id="Path_459" data-name="Path 459" d="M27.364,44.024a1.37,1.37,0,0,1-1.371-1.375V27.364a1.371,1.371,0,0,1,1.371-1.371H42.649a1.372,1.372,0,0,1,1.288,1.849,27.267,27.267,0,0,1-16.1,16.1,1.352,1.352,0,0,1-.478.087m1.377-15.285V40.587A24.522,24.522,0,0,0,40.587,28.739Z" transform="translate(23.105 23.105)"/>
      <path id="Path_460" data-name="Path 460" d="M25.016,44.024a1.352,1.352,0,0,1-.478-.087,27.256,27.256,0,0,1-16.092-16.1,1.37,1.37,0,0,1,1.286-1.849H25.016a1.373,1.373,0,0,1,1.373,1.371V42.649a1.373,1.373,0,0,1-1.373,1.375M11.8,28.739A24.506,24.506,0,0,0,23.641,40.587V28.739Z" transform="translate(7.431 23.105)"/>
      <path id="Path_461" data-name="Path 461" d="M22.6,41.67a1.374,1.374,0,0,1-.973-2.344L59.237,1.712a1.374,1.374,0,0,1,1.944,1.942L23.567,41.266a1.36,1.36,0,0,1-.971.4" transform="translate(18.863 1.165)"/>
      <path id="Path_462" data-name="Path 462" d="M39.766,10.019A1.375,1.375,0,0,1,38.4,8.46l.931-6.842a1.374,1.374,0,0,1,2.722.372l-.682,5.017L46.628,6.2a1.372,1.372,0,1,1,.417,2.712L39.974,10a1.284,1.284,0,0,1-.208.017" transform="translate(34.126 0.384)"/>
      <path id="Path_463" data-name="Path 463" d="M26.166,35.127a8.961,8.961,0,1,1,1.723-17.752,1.372,1.372,0,0,1-.525,2.694,6.213,6.213,0,1,0,5.015,6.1,6.287,6.287,0,0,0-.115-1.2,1.372,1.372,0,0,1,2.694-.525,8.956,8.956,0,0,1-8.791,10.684" transform="translate(15.293 15.294)" fill="#eabb26"/>
      <path id="Path_464" data-name="Path 464" d="M28.625,42.81a14.186,14.186,0,0,1,0-28.371,14.05,14.05,0,0,1,6.146,1.415,1.374,1.374,0,1,1-1.194,2.474,11.327,11.327,0,0,0-4.953-1.141A11.438,11.438,0,1,0,40.064,28.625a11.3,11.3,0,0,0-1.143-4.953A1.374,1.374,0,1,1,41.4,22.478a14.05,14.05,0,0,1,1.415,6.146A14.2,14.2,0,0,1,28.625,42.81" transform="translate(12.835 12.835)"/>
      <path id="Path_465" data-name="Path 465" d="M27.366,20.407a1.373,1.373,0,0,1-1.373-1.373v-9.3a1.375,1.375,0,0,1,1.853-1.288,27.4,27.4,0,0,1,6.392,3.4,1.373,1.373,0,1,1-1.6,2.231A24.893,24.893,0,0,0,28.741,11.8v7.238a1.375,1.375,0,0,1-1.375,1.373" transform="translate(23.105 7.43)"/>
      <path id="Path_466" data-name="Path 466" d="M39.834,22.054h-9.3a1.373,1.373,0,0,1,0-2.746H37.77a24.643,24.643,0,0,0-2.282-3.9,1.373,1.373,0,1,1,2.231-1.6,27.354,27.354,0,0,1,3.4,6.392,1.374,1.374,0,0,1-1.288,1.851" transform="translate(25.922 11.767)"/>
      <path id="Path_467" data-name="Path 467" d="M38.873,74.835a35.962,35.962,0,1,1,0-71.924A35.6,35.6,0,0,1,61,10.529,1.375,1.375,0,0,1,59.3,12.7a32.876,32.876,0,0,0-20.43-7.038A33.215,33.215,0,1,0,72.087,38.872a32.872,32.872,0,0,0-7.038-20.43,1.375,1.375,0,0,1,2.167-1.692,35.6,35.6,0,0,1,7.618,22.123A36,36,0,0,1,38.873,74.835" transform="translate(2.587 2.588)"/>
      <path id="Path_468" data-name="Path 468" d="M41.459,75.91A41.506,41.506,0,0,1,0,34.451a1.373,1.373,0,1,1,2.746,0A38.712,38.712,0,1,0,71.565,10.124,1.373,1.373,0,1,1,73.7,8.4,41.453,41.453,0,0,1,41.459,75.91" transform="translate(0 7.009)"/>
      <path id="Path_469" data-name="Path 469" d="M21.431,2.805A1.373,1.373,0,0,1,21.359.06Q22.487,0,23.63,0a1.373,1.373,0,1,1,0,2.746q-1.071,0-2.125.057l-.074,0" transform="translate(17.83 0)"/>
      <path id="Path_470" data-name="Path 470" d="M2.1,31.722a1.388,1.388,0,0,1-.357-.049A1.374,1.374,0,0,1,.778,29.99a41.38,41.38,0,0,1,1.343-4.106,1.374,1.374,0,0,1,2.563.99,37.53,37.53,0,0,0-1.252,3.833A1.378,1.378,0,0,1,2.1,31.722m5.1-11.4A1.373,1.373,0,0,1,6.056,18.2,41.632,41.632,0,0,1,8.6,14.706a1.372,1.372,0,1,1,2.133,1.728A39.536,39.536,0,0,0,8.357,19.7a1.369,1.369,0,0,1-1.15.623m8.366-9.28a1.374,1.374,0,0,1-.865-2.44,41.662,41.662,0,0,1,3.5-2.544,1.373,1.373,0,1,1,1.5,2.3,38.909,38.909,0,0,0-3.266,2.376,1.356,1.356,0,0,1-.865.308M26.384,4.775a1.373,1.373,0,0,1-.495-2.654A41,41,0,0,1,30,.776a1.373,1.373,0,0,1,.714,2.652,39.256,39.256,0,0,0-3.84,1.254,1.373,1.373,0,0,1-.493.093" transform="translate(0.65 0.647)"/>
      <path id="Path_471" data-name="Path 471" d="M1.373,25A1.375,1.375,0,0,1,0,23.628q0-1.142.062-2.27a1.373,1.373,0,0,1,2.743.145c-.04.7-.057,1.415-.057,2.125A1.376,1.376,0,0,1,1.373,25" transform="translate(0 17.831)"/>
      <path id="Path_472" data-name="Path 472" d="M47.786,11.658a1.376,1.376,0,0,1-.863-.3A38.793,38.793,0,0,0,22.6,2.746,1.373,1.373,0,1,1,22.6,0,41.563,41.563,0,0,1,48.649,9.218a1.373,1.373,0,0,1-.863,2.44" transform="translate(18.864 0)"/>
    </g>
  </g>
</svg>
