<?xml version="1.0" encoding="utf-8"?>
<!-- Generator: Adobe Illustrator 25.4.1, SVG Export Plug-In . SVG Version: 6.00 Build 0)  -->
<svg version="1.1" id="Layer_1" xmlns="http://www.w3.org/2000/svg" xmlns:xlink="http://www.w3.org/1999/xlink" x="0px" y="0px"
	 viewBox="0 0 74 27" style="enable-background:new 0 0 74 27;" xml:space="preserve">
<style type="text/css">
	.st0{fill:#061A39;}
	.st1{fill:#1D96D4;}
</style>
<g>
	<g>
		<g>
			<g>
				<path class="st0" d="M25.5,22.9c-0.5-1.6-1.1-3.2-1.6-4.8h-3.5L15.4,3.8h-5c2.2,6.4,4.4,12.7,6.5,19.1L25.5,22.9z"/>
				<path class="st1" d="M10.4,3.8h-0.3C8,10.2,5.8,16.6,3.7,22.9h5l2-5.8H15L10.4,3.8z"/>
				<path class="st1" d="M37,3.8h-5l-4,11.8l-4-11.8h-5c2.2,6.4,4.4,12.7,6.5,19.1h5C32.6,16.6,34.8,10.2,37,3.8z"/>
			</g>
		</g>
	</g>
	<g>
		<rect x="45.3" y="1" class="st0" width="1" height="24.8"/>
	</g>
	<g>
		<path class="st0" d="M54.6,4.4c0-0.4,0.3-0.7,0.7-0.7h7.3c2.2,0,4,0.6,5,1.7c0.8,0.8,1.2,1.8,1.2,3v0.1c0,2.6-1.7,4-3.3,4.6
			c2.3,0.6,4.4,1.9,4.4,4.6v0.1c0,3.2-2.8,5.3-6.9,5.3h-7.7c-0.4,0-0.7-0.3-0.7-0.7V4.4z M62.4,12.6c2.9,0,5-1.4,5-4V8.6
			c0-2.1-1.7-3.6-4.8-3.6H56v7.6H62.4z M63,21.7c3.3,0,5.4-1.5,5.4-4v-0.1c0-2.4-2.1-3.8-5.9-3.8H56v7.8H63z"/>
	</g>
</g>
</svg>
