<?xml version="1.0" encoding="utf-8"?>
<!-- Generator: Adobe Illustrator 25.4.1, SVG Export Plug-In . SVG Version: 6.00 Build 0)  -->
<svg version="1.1" id="Layer_1" xmlns="http://www.w3.org/2000/svg" xmlns:xlink="http://www.w3.org/1999/xlink" x="0px" y="0px"
	 viewBox="0 0 74 27" style="enable-background:new 0 0 74 27;" xml:space="preserve">
<style type="text/css">
	.st0{fill:#FFFFFF;}
	.st1{fill:url(#SVGID_1_);}
	.st2{fill:url(#SVGID_00000150803354974787123520000007729954127143585459_);}
</style>
<g>
	<g>
		<rect x="45.3" y="1" class="st0" width="1" height="24.8"/>
	</g>
	<g>
		<path class="st0" d="M54.6,4.4c0-0.4,0.3-0.7,0.7-0.7h7.3c2.2,0,4,0.6,5,1.7c0.8,0.8,1.2,1.8,1.2,3v0.1c0,2.6-1.7,4-3.3,4.6
			c2.3,0.6,4.4,1.9,4.4,4.6v0.1c0,3.2-2.8,5.3-6.9,5.3h-7.7c-0.4,0-0.7-0.3-0.7-0.7C54.6,22.4,54.6,4.4,54.6,4.4z M62.4,12.6
			c2.9,0,5-1.4,5-4l0,0c0-2.1-1.7-3.6-4.8-3.6H56v7.6H62.4z M63,21.7c3.3,0,5.4-1.5,5.4-4v-0.1c0-2.4-2.1-3.8-5.9-3.8H56v7.8h7V21.7
			z"/>
	</g>
	<g>
		
			<linearGradient id="SVGID_1_" gradientUnits="userSpaceOnUse" x1="10.9446" y1="12.5842" x2="25.5121" y2="16.7198" gradientTransform="matrix(1 0 0 -1 0 27.8898)">
			<stop  offset="0" style="stop-color:#FFFFFF"/>
			<stop  offset="0.2394" style="stop-color:#FDFDFD;stop-opacity:0.9552"/>
			<stop  offset="0.357" style="stop-color:#F5F5F5;stop-opacity:0.9332"/>
			<stop  offset="0.4481" style="stop-color:#E8E8E8;stop-opacity:0.9161"/>
			<stop  offset="0.5255" style="stop-color:#D5D5D5;stop-opacity:0.9016"/>
			<stop  offset="0.5943" style="stop-color:#BDBDBD;stop-opacity:0.8887"/>
			<stop  offset="0.657" style="stop-color:#9F9F9F;stop-opacity:0.877"/>
			<stop  offset="0.7151" style="stop-color:#7C7C7C;stop-opacity:0.8661"/>
			<stop  offset="0.7695" style="stop-color:#525252;stop-opacity:0.8559"/>
			<stop  offset="0.819" style="stop-color:#252525;stop-opacity:0.8466"/>
			<stop  offset="0.8545" style="stop-color:#000000;stop-opacity:0.84"/>
		</linearGradient>
		<path class="st1" d="M25.6,22.9c-0.5-1.6-1.1-3.2-1.6-4.8c-1.2,0-2.4,0-3.5,0c-1.6-4.8-3.3-9.6-4.9-14.4c-1.7,0-3.4,0-5,0
			c2.2,6.4,4.4,12.9,6.6,19.3C19.9,22.9,22.8,22.9,25.6,22.9z"/>
		
			<linearGradient id="SVGID_00000108300851921345384770000007558934834067341957_" gradientUnits="userSpaceOnUse" x1="6.6614" y1="14.3157" x2="18.0267" y2="15.4887" gradientTransform="matrix(1 0 0 -1 0 27.8898)">
			<stop  offset="0" style="stop-color:#FFFFFF"/>
			<stop  offset="7.280000e-02" style="stop-color:#F9F9F9;stop-opacity:0.9854"/>
			<stop  offset="0.173" style="stop-color:#E7E7E7;stop-opacity:0.9652"/>
			<stop  offset="0.2892" style="stop-color:#CACACA;stop-opacity:0.9419"/>
			<stop  offset="0.4174" style="stop-color:#A1A1A1;stop-opacity:0.9162"/>
			<stop  offset="0.5554" style="stop-color:#6D6D6D;stop-opacity:0.8884"/>
			<stop  offset="0.6993" style="stop-color:#2F2F2F;stop-opacity:0.8595"/>
			<stop  offset="0.7965" style="stop-color:#000000;stop-opacity:0.84"/>
		</linearGradient>
		<path style="fill:url(#SVGID_00000108300851921345384770000007558934834067341957_);" d="M10.5,3.7c-0.1,0-0.2,0-0.3,0
			C8,10.1,5.8,16.5,3.7,22.9c1.7,0,3.3,0,5,0c0.7-1.9,1.3-3.9,2-5.8c1.5,0,2.9,0,4.4,0C13.6,12.6,12,8.1,10.5,3.7z"/>
		<path class="st0" d="M37.2,3.6c-1.7,0-3.4,0-5,0c-1.3,4-2.7,7.9-4,11.9c-1.3-4-2.7-7.9-4-11.9c-1.7,0-3.4,0-5,0
			c2.2,6.4,4.4,12.9,6.6,19.3c1.7,0,3.3,0,5,0c0.6-1.6,1.1-3.3,1.7-4.9h0C34,13.2,35.6,8.4,37.2,3.6z"/>
	</g>
</g>
</svg>
